# xmcd CD database file
#
# Track frame offsets:
#	150
#	19018
#	36208
#	52133
#	66415
#	88873
#	106765
#	124265
#	140310
#	158060
#
# Disc length: 2358 seconds
#
# Revision: 6
# Processed by: cddbd v1.5.2PL0 Copyright (c) Steve Scherf et al.
# Submitted via: CDex 1.70beta2
#
DISCID=8709340a
DTITLE=MOONRIDERS - AMATEUR ACADEMY
DYEAR=1984
DGENRE=Pop
TTITLE0=Y.B.J.
TTITLE1=30
TTITLE2=G.o.a.P.
TTITLE3=B TO F
TTITLE4=S・E・X
TTITLE5=M.I.J.
TTITLE6=NO.OH
TTITLE7=D/P
TTITLE8=BLDG
TTITLE9=B.B.L.B.
EXTD=YEAR: 1984
EXTT0=
EXTT1=
EXTT2=
EXTT3=
EXTT4=
EXTT5=
EXTT6=
EXTT7=
EXTT8=
EXTT9=
PLAYORDER=
